<mxfile host="app.diagrams.net" modified="2020-07-15T13:35:07.736Z" agent="5.0 (Macintosh; Intel Mac OS X 10_15_5) AppleWebKit/537.36 (KHTML, like Gecko) Chrome/83.0.4103.116 Safari/537.36" etag="-g_5FeChKcnQI13mP2yk" version="13.4.1" type="github">
  <diagram id="P7GB8M-e2q4bmQhuOwzx" name="第 1 页">
    <mxGraphModel dx="944" dy="548" grid="1" gridSize="10" guides="1" tooltips="1" connect="1" arrows="1" fold="1" page="1" pageScale="1" pageWidth="827" pageHeight="1169" math="0" shadow="0">
      <root>
        <mxCell id="0" />
        <mxCell id="1" parent="0" />
        <mxCell id="_GhrrFvjnhTZuoyEYU81-3" value="" style="rounded=1;whiteSpace=wrap;html=1;" vertex="1" parent="1">
          <mxGeometry x="340" y="210" width="200" height="100" as="geometry" />
        </mxCell>
        <mxCell id="_GhrrFvjnhTZuoyEYU81-12" value="&lt;div style=&quot;text-align: left&quot;&gt;&lt;span&gt;URL: authPrintInfo&lt;/span&gt;&lt;/div&gt;&lt;div style=&quot;text-align: left&quot;&gt;&lt;span&gt;Method: post&lt;/span&gt;&lt;/div&gt;&lt;div style=&quot;text-align: left&quot;&gt;Params:&lt;/div&gt;&lt;div style=&quot;text-align: left&quot;&gt;新增performId&lt;/div&gt;&lt;div style=&quot;text-align: left&quot;&gt;更改voucherIdStrs&lt;/div&gt;&lt;div style=&quot;text-align: left&quot;&gt;(http://)&lt;/div&gt;" style="text;html=1;strokeColor=none;fillColor=none;align=center;verticalAlign=middle;whiteSpace=wrap;rounded=0;" vertex="1" parent="1">
          <mxGeometry x="340" y="215" width="198" height="90" as="geometry" />
        </mxCell>
        <mxCell id="_GhrrFvjnhTZuoyEYU81-18" style="edgeStyle=orthogonalEdgeStyle;rounded=0;orthogonalLoop=1;jettySize=auto;html=1;entryX=0.5;entryY=0;entryDx=0;entryDy=0;" edge="1" parent="1" source="_GhrrFvjnhTZuoyEYU81-1" target="_GhrrFvjnhTZuoyEYU81-16">
          <mxGeometry relative="1" as="geometry">
            <Array as="points">
              <mxPoint x="160" y="360" />
              <mxPoint x="310" y="360" />
            </Array>
          </mxGeometry>
        </mxCell>
        <mxCell id="_GhrrFvjnhTZuoyEYU81-1" value="老链路不变" style="rounded=1;whiteSpace=wrap;html=1;" vertex="1" parent="1">
          <mxGeometry x="100" y="210" width="120" height="40" as="geometry" />
        </mxCell>
        <mxCell id="_GhrrFvjnhTZuoyEYU81-5" style="edgeStyle=orthogonalEdgeStyle;rounded=0;orthogonalLoop=1;jettySize=auto;html=1;entryX=0.5;entryY=0;entryDx=0;entryDy=0;" edge="1" parent="1" source="_GhrrFvjnhTZuoyEYU81-2" target="_GhrrFvjnhTZuoyEYU81-1">
          <mxGeometry relative="1" as="geometry" />
        </mxCell>
        <mxCell id="_GhrrFvjnhTZuoyEYU81-6" style="edgeStyle=orthogonalEdgeStyle;rounded=0;orthogonalLoop=1;jettySize=auto;html=1;entryX=0.5;entryY=0;entryDx=0;entryDy=0;" edge="1" parent="1" source="_GhrrFvjnhTZuoyEYU81-2" target="_GhrrFvjnhTZuoyEYU81-3">
          <mxGeometry relative="1" as="geometry" />
        </mxCell>
        <mxCell id="_GhrrFvjnhTZuoyEYU81-2" value="和打印服务链接（ws://）" style="rhombus;whiteSpace=wrap;html=1;" vertex="1" parent="1">
          <mxGeometry x="200" y="60" width="190" height="70" as="geometry" />
        </mxCell>
        <mxCell id="_GhrrFvjnhTZuoyEYU81-22" style="edgeStyle=orthogonalEdgeStyle;rounded=0;orthogonalLoop=1;jettySize=auto;html=1;entryX=0.5;entryY=0;entryDx=0;entryDy=0;" edge="1" parent="1" source="_GhrrFvjnhTZuoyEYU81-3" target="_GhrrFvjnhTZuoyEYU81-16">
          <mxGeometry relative="1" as="geometry">
            <Array as="points">
              <mxPoint x="440" y="360" />
              <mxPoint x="310" y="360" />
            </Array>
          </mxGeometry>
        </mxCell>
        <mxCell id="_GhrrFvjnhTZuoyEYU81-7" value="version不存在&lt;br&gt;小于4.4.0" style="text;html=1;strokeColor=none;fillColor=none;align=center;verticalAlign=middle;whiteSpace=wrap;rounded=0;" vertex="1" parent="1">
          <mxGeometry x="100" y="130" width="100" height="30" as="geometry" />
        </mxCell>
        <mxCell id="_GhrrFvjnhTZuoyEYU81-8" value="version存在&lt;br&gt;大于等于4.4.0" style="text;html=1;strokeColor=none;fillColor=none;align=center;verticalAlign=middle;whiteSpace=wrap;rounded=0;" vertex="1" parent="1">
          <mxGeometry x="370" y="130" width="100" height="30" as="geometry" />
        </mxCell>
        <mxCell id="_GhrrFvjnhTZuoyEYU81-16" value="继续打印服务连接（ws://）" style="rounded=1;whiteSpace=wrap;html=1;" vertex="1" parent="1">
          <mxGeometry x="250" y="400" width="120" height="50" as="geometry" />
        </mxCell>
      </root>
    </mxGraphModel>
  </diagram>
</mxfile>
